<?xml version="1.0" encoding="UTF-8"?>
<!DOCTYPE svg PUBLIC "-//W3C//DTD SVG 1.1//EN" "http://www.w3.org/Graphics/SVG/1.1/DTD/svg11.dtd">
<svg xmlns="http://www.w3.org/2000/svg" version="1.1" width="600px" height="480px" style="shape-rendering:geometricPrecision; text-rendering:geometricPrecision; image-rendering:optimizeQuality; fill-rule:evenodd; clip-rule:evenodd" xmlns:xlink="http://www.w3.org/1999/xlink">
<g><path style="opacity:0.145" fill="#67553c" d="M 293.5,159.5 C 292.5,158.167 291.5,158.167 290.5,159.5C 291.5,156.833 292.5,156.833 293.5,159.5 Z"/></g>
<g><path style="opacity:1" fill="#bec4c9" d="M 293.5,159.5 C 294.167,160.833 295.167,161.833 296.5,162.5C 297.167,163.833 298.167,164.833 299.5,165.5C 300.167,166.833 301.167,167.833 302.5,168.5C 303.167,169.833 304.167,170.833 305.5,171.5C 305.5,171.833 305.5,172.167 305.5,172.5C 305.565,172.938 305.399,173.272 305,173.5C 303.556,171.845 301.722,171.178 299.5,171.5C 296.833,169.167 294.167,166.833 291.5,164.5C 288.901,164.549 286.734,165.549 285,167.5C 284.601,167.272 284.435,166.938 284.5,166.5C 284.5,166.167 284.5,165.833 284.5,165.5C 285.833,164.833 286.833,163.833 287.5,162.5C 288.833,161.833 289.833,160.833 290.5,159.5C 291.5,158.167 292.5,158.167 293.5,159.5 Z"/></g>
<g><path style="opacity:0.047" fill="#665742" d="M 293.5,159.5 C 295.5,159.5 296.5,160.5 296.5,162.5C 295.167,161.833 294.167,160.833 293.5,159.5 Z"/></g>
<g><path style="opacity:0.525" fill="#685b48" d="M 290.5,159.5 C 289.833,160.833 288.833,161.833 287.5,162.5C 287.5,160.5 288.5,159.5 290.5,159.5 Z"/></g>
<g><path style="opacity:0.047" fill="#665742" d="M 296.5,162.5 C 298.5,162.5 299.5,163.5 299.5,165.5C 298.167,164.833 297.167,163.833 296.5,162.5 Z"/></g>
<g><path style="opacity:0.525" fill="#685b48" d="M 287.5,162.5 C 286.833,163.833 285.833,164.833 284.5,165.5C 284.5,163.5 285.5,162.5 287.5,162.5 Z"/></g>
<g><path style="opacity:0.996" fill="#a4a8ac" d="M 291.5,164.5 C 288.037,168.464 284.37,172.298 280.5,176C 279.002,176.585 278.002,176.085 277.5,174.5C 277.557,173.391 277.89,172.391 278.5,171.5C 279.833,170.833 280.833,169.833 281.5,168.5C 282.5,167.833 283.5,167.167 284.5,166.5C 284.435,166.938 284.601,167.272 285,167.5C 286.734,165.549 288.901,164.549 291.5,164.5 Z"/></g>
<g><path style="opacity:1" fill="#1d1a19" d="M 291.5,164.5 C 294.167,166.833 296.833,169.167 299.5,171.5C 310.167,182.833 321.167,193.833 332.5,204.5C 335.5,208.167 338.833,211.5 342.5,214.5C 352.959,225.46 363.626,236.293 374.5,247C 372.626,249.696 370.626,252.196 368.5,254.5C 363.181,259.814 357.514,264.814 351.5,269.5C 351.631,268.761 351.464,268.094 351,267.5C 350.23,268.598 349.397,268.598 348.5,267.5C 354.629,260.204 361.295,253.371 368.5,247C 358.973,237.473 349.473,227.973 340,218.5C 339.667,220.833 339.333,223.167 339,225.5C 338.005,226.066 337.172,226.733 336.5,227.5C 334.565,228.15 332.565,228.483 330.5,228.5C 330.784,230.415 330.451,232.081 329.5,233.5C 329.386,231.282 328.72,229.282 327.5,227.5C 328.309,225.708 328.809,223.708 329,221.5C 330.25,222.573 331.584,222.573 333,221.5C 334.811,222.424 334.645,223.257 332.5,224C 333.905,225.269 335.571,225.769 337.5,225.5C 337.917,221.183 337.25,217.183 335.5,213.5C 334.651,210.319 332.985,207.652 330.5,205.5C 329.415,203.413 327.749,202.08 325.5,201.5C 321.988,198.83 318.322,196.33 314.5,194C 312.833,193.333 311.167,193.333 309.5,194C 303.911,196.599 298.577,199.599 293.5,203C 292.331,205.007 291.665,207.173 291.5,209.5C 289.596,211.044 288.762,213.044 289,215.5C 291.02,213.449 292.52,211.116 293.5,208.5C 293.751,206.83 294.418,205.33 295.5,204C 300.781,200.776 306.281,197.943 312,195.5C 319.702,199.858 326.702,205.191 333,211.5C 333.49,212.793 333.657,214.127 333.5,215.5C 333.5,217.167 333.5,218.833 333.5,220.5C 331.876,220.64 330.71,219.973 330,218.5C 329.29,219.973 328.124,220.64 326.5,220.5C 325.837,218.958 325.17,217.291 324.5,215.5C 323.817,215.863 323.15,216.196 322.5,216.5C 321.288,217.23 320.288,218.23 319.5,219.5C 318.914,219.291 318.414,218.957 318,218.5C 315.589,221.105 313.089,221.105 310.5,218.5C 309.522,218.977 308.689,219.643 308,220.5C 305.643,218.354 303.143,218.021 300.5,219.5C 300.167,219.5 299.833,219.5 299.5,219.5C 299.5,218.833 299.167,218.5 298.5,218.5C 294.91,218.544 292.41,220.211 291,223.5C 290.617,222.944 290.117,222.611 289.5,222.5C 286.695,221.681 283.695,221.181 280.5,221C 276.598,218.249 272.598,215.749 268.5,213.5C 268.833,212.833 269.167,212.167 269.5,211.5C 268.631,207.626 266.297,204.959 262.5,203.5C 258.905,202.748 255.572,201.414 252.5,199.5C 252.262,197.596 251.262,196.262 249.5,195.5C 249.297,193.956 248.63,192.622 247.5,191.5C 248.127,190.583 248.461,189.583 248.5,188.5C 248.884,184.445 250.884,181.445 254.5,179.5C 259.592,179.497 259.592,180.33 254.5,182C 257.364,182.193 260.03,181.693 262.5,180.5C 265.167,180.5 267.833,180.5 270.5,180.5C 270.34,182.199 270.506,183.866 271,185.5C 275.174,188.825 278.34,192.825 280.5,197.5C 281.209,198.404 282.209,198.737 283.5,198.5C 284.59,195.015 284.59,191.681 283.5,188.5C 280.848,184.518 277.848,180.851 274.5,177.5C 275.167,176.167 276.167,175.167 277.5,174.5C 278.002,176.085 279.002,176.585 280.5,176C 284.37,172.298 288.037,168.464 291.5,164.5 Z"/></g>
<g><path style="opacity:0.047" fill="#665742" d="M 299.5,165.5 C 301.5,165.5 302.5,166.5 302.5,168.5C 301.167,167.833 300.167,166.833 299.5,165.5 Z"/></g>
<g><path style="opacity:0.525" fill="#685b48" d="M 284.5,165.5 C 284.5,165.833 284.5,166.167 284.5,166.5C 283.5,167.167 282.5,167.833 281.5,168.5C 281.5,166.5 282.5,165.5 284.5,165.5 Z"/></g>
<g><path style="opacity:0.047" fill="#665742" d="M 302.5,168.5 C 304.5,168.5 305.5,169.5 305.5,171.5C 304.167,170.833 303.167,169.833 302.5,168.5 Z"/></g>
<g><path style="opacity:0.525" fill="#685b48" d="M 281.5,168.5 C 280.833,169.833 279.833,170.833 278.5,171.5C 278.5,169.5 279.5,168.5 281.5,168.5 Z"/></g>
<g><path style="opacity:0.047" fill="#665742" d="M 305.5,172.5 C 305.5,172.167 305.5,171.833 305.5,171.5C 307.5,171.5 308.5,172.5 308.5,174.5C 307.5,173.833 306.5,173.167 305.5,172.5 Z"/></g>
<g><path style="opacity:0.145" fill="#705733" d="M 278.5,171.5 C 277.89,172.391 277.557,173.391 277.5,174.5C 276.167,175.167 275.167,176.167 274.5,177.5C 273.395,176.4 272.062,175.733 270.5,175.5C 265.025,174.511 259.358,174.178 253.5,174.5C 252.833,174.5 252.167,174.5 251.5,174.5C 258.681,171.907 266.015,171.907 273.5,174.5C 274.99,173.16 276.656,172.16 278.5,171.5 Z"/></g>
<g><path style="opacity:1" fill="#282728" d="M 280.5,216.5 C 282.59,216.55 283.923,215.55 284.5,213.5C 283.907,211.618 283.24,209.785 282.5,208C 283.406,206.301 283.739,204.467 283.5,202.5C 280.615,202.806 277.948,202.473 275.5,201.5C 286.337,202.818 290.171,198.152 287,187.5C 286.122,184.785 284.622,182.451 282.5,180.5C 284.876,176.931 287.876,174.431 291.5,173C 291.162,181.806 291.162,190.473 291.5,199C 289.261,205.133 287.261,211.299 285.5,217.5C 283.585,217.784 281.919,217.451 280.5,216.5 Z"/></g>
<g><path style="opacity:0.047" fill="#665742" d="M 308.5,174.5 C 310.5,174.5 311.5,175.5 311.5,177.5C 310.167,176.833 309.167,175.833 308.5,174.5 Z"/></g>
<g><path style="opacity:0.341" fill="#6e5735" d="M 249.5,174.5 C 245.453,176.26 241.12,177.26 236.5,177.5C 240.515,175.627 244.849,174.627 249.5,174.5 Z"/></g>
<g><path style="opacity:1" fill="#d4a355" d="M 253.5,174.5 C 259.358,174.178 265.025,174.511 270.5,175.5C 263.166,176.378 255.833,176.878 248.5,177C 250.491,176.626 252.158,175.793 253.5,174.5 Z"/></g>
<g><path style="opacity:1" fill="#c78d30" d="M 249.5,174.5 C 250.167,174.5 250.833,174.5 251.5,174.5C 252.167,174.5 252.833,174.5 253.5,174.5C 252.158,175.793 250.491,176.626 248.5,177C 255.833,176.878 263.166,176.378 270.5,175.5C 272.062,175.733 273.395,176.4 274.5,177.5C 274.631,178.239 274.464,178.906 274,179.5C 262.373,176.586 250.873,177.252 239.5,181.5C 241.167,182.667 242.833,183.833 244.5,185C 241.843,185.175 239.176,185.008 236.5,184.5C 235.448,184.351 234.448,184.517 233.5,185C 237.919,186.936 241.919,189.436 245.5,192.5C 244.761,192.369 244.094,192.536 243.5,193C 246.654,196.152 248.987,199.819 250.5,204C 253.352,204.269 256.018,205.103 258.5,206.5C 258.833,206.167 259.167,205.833 259.5,205.5C 257.754,203.146 255.421,202.146 252.5,202.5C 252.5,201.5 252.5,200.5 252.5,199.5C 255.572,201.414 258.905,202.748 262.5,203.5C 262.5,205.833 262.5,208.167 262.5,210.5C 262.5,210.833 262.5,211.167 262.5,211.5C 259.077,211.914 256.41,212.58 254.5,213.5C 255.492,215.026 256.992,215.693 259,215.5C 262.858,213.532 266.024,214.199 268.5,217.5C 267.561,218.327 267.895,218.994 269.5,219.5C 272.295,221.751 274.628,224.418 276.5,227.5C 276.917,228.124 277.584,228.457 278.5,228.5C 283.185,227.545 283.852,226.045 280.5,224C 283.351,222.711 286.351,222.211 289.5,222.5C 291.769,224.647 291.436,226.813 288.5,229C 288.728,229.399 289.062,229.565 289.5,229.5C 289.5,229.833 289.5,230.167 289.5,230.5C 288.737,231.268 287.737,231.768 286.5,232C 288.348,233.518 289.848,235.351 291,237.5C 293.474,243.757 295.641,250.09 297.5,256.5C 292.906,255.185 288.239,254.185 283.5,253.5C 276.663,251.934 270.497,253.601 265,258.5C 264.333,257.833 264.333,257.167 265,256.5C 269.321,252.691 272.154,248.025 273.5,242.5C 275.293,239.741 275.793,236.741 275,233.5C 274.861,236.445 273.694,238.779 271.5,240.5C 273.191,237.355 273.691,234.021 273,230.5C 272.167,235.2 269.667,238.533 265.5,240.5C 267.213,238.093 268.547,235.426 269.5,232.5C 268.687,231.186 267.687,230.019 266.5,229C 263.562,227.192 260.562,225.692 257.5,224.5C 257.271,227.584 257.271,230.918 257.5,234.5C 255.763,239.236 252.429,242.236 247.5,243.5C 245.158,242.789 244.825,241.456 246.5,239.5C 247.434,238.432 247.768,237.099 247.5,235.5C 247.5,235.167 247.5,234.833 247.5,234.5C 248.338,234.158 248.672,233.492 248.5,232.5C 251.168,231.543 252.668,229.543 253,226.5C 253.667,223.5 253.667,220.5 253,217.5C 250.37,213.868 247.37,210.535 244,207.5C 243.802,205.618 243.302,203.952 242.5,202.5C 242.357,199.903 241.523,197.569 240,195.5C 239.517,196.448 239.351,197.448 239.5,198.5C 239.775,203.22 238.941,203.554 237,199.5C 236.788,196.242 236.288,193.076 235.5,190C 232.832,189.433 230.166,188.933 227.5,188.5C 226.685,187.163 225.518,186.163 224,185.5C 223.333,184.167 223.333,182.833 224,181.5C 228.28,180.228 232.447,178.894 236.5,177.5C 241.12,177.26 245.453,176.26 249.5,174.5 Z"/></g>
<g><path style="opacity:0.047" fill="#665742" d="M 311.5,177.5 C 313.5,177.5 314.5,178.5 314.5,180.5C 313.167,179.833 312.167,178.833 311.5,177.5 Z"/></g>
<g><path style="opacity:1" fill="#ab7828" d="M 274.5,177.5 C 277.848,180.851 280.848,184.518 283.5,188.5C 283.535,194.96 282.702,194.96 281,188.5C 280.105,191.466 280.605,194.133 282.5,196.5C 282.043,197.298 281.376,197.631 280.5,197.5C 278.34,192.825 275.174,188.825 271,185.5C 270.506,183.866 270.34,182.199 270.5,180.5C 267.833,180.5 265.167,180.5 262.5,180.5C 259.997,178.396 257.33,178.063 254.5,179.5C 250.884,181.445 248.884,184.445 248.5,188.5C 247.735,188.923 246.902,189.257 246,189.5C 242.629,188.108 239.463,186.441 236.5,184.5C 239.176,185.008 241.843,185.175 244.5,185C 242.833,183.833 241.167,182.667 239.5,181.5C 250.873,177.252 262.373,176.586 274,179.5C 274.464,178.906 274.631,178.239 274.5,177.5 Z"/></g>
<g><path style="opacity:1" fill="#755524" d="M 254.5,179.5 C 257.33,178.063 259.997,178.396 262.5,180.5C 260.03,181.693 257.364,182.193 254.5,182C 259.592,180.33 259.592,179.497 254.5,179.5 Z"/></g>
<g><path style="opacity:0.047" fill="#665742" d="M 314.5,180.5 C 316.5,180.5 317.5,181.5 317.5,183.5C 316.167,182.833 315.167,181.833 314.5,180.5 Z"/></g>
<g><path style="opacity:0.047" fill="#665742" d="M 317.5,183.5 C 319.5,183.5 320.5,184.5 320.5,186.5C 319.167,185.833 318.167,184.833 317.5,183.5 Z"/></g>
<g><path style="opacity:0.996" fill="#a8acb0" d="M 299.5,171.5 C 301.722,171.178 303.556,171.845 305,173.5C 305.399,173.272 305.565,172.938 305.5,172.5C 306.5,173.167 307.5,173.833 308.5,174.5C 309.167,175.833 310.167,176.833 311.5,177.5C 312.167,178.833 313.167,179.833 314.5,180.5C 315.167,181.833 316.167,182.833 317.5,183.5C 318.167,184.833 319.167,185.833 320.5,186.5C 321.167,187.833 322.167,188.833 323.5,189.5C 324.167,190.833 325.167,191.833 326.5,192.5C 327.167,193.833 328.167,194.833 329.5,195.5C 330.167,196.833 331.167,197.833 332.5,198.5C 333.167,199.833 334.167,200.833 335.5,201.5C 336.167,202.833 337.167,203.833 338.5,204.5C 339.167,205.833 340.167,206.833 341.5,207.5C 342.167,208.833 343.167,209.833 344.5,210.5C 344.5,210.833 344.5,211.167 344.5,211.5C 343.687,212.653 342.687,212.653 341.5,211.5C 339.058,208.385 336.058,206.052 332.5,204.5C 321.167,193.833 310.167,182.833 299.5,171.5 Z"/></g>
<g><path style="opacity:1" fill="#715326" d="M 236.5,177.5 C 232.447,178.894 228.28,180.228 224,181.5C 223.333,182.833 223.333,184.167 224,185.5C 225.518,186.163 226.685,187.163 227.5,188.5C 228.903,189.931 230.569,191.098 232.5,192C 229.609,193.59 228.942,195.756 230.5,198.5C 229.833,198.167 229.167,197.833 228.5,197.5C 228.322,196.305 227.989,195.138 227.5,194C 227.905,193.055 228.572,192.388 229.5,192C 227.376,190.878 225.543,189.378 224,187.5C 223.996,189.368 224.496,191.202 225.5,193C 225.257,193.902 224.923,194.735 224.5,195.5C 217.153,182.517 221.153,176.517 236.5,177.5 Z"/></g>
<g><path style="opacity:0.047" fill="#665742" d="M 320.5,186.5 C 322.5,186.5 323.5,187.5 323.5,189.5C 322.167,188.833 321.167,187.833 320.5,186.5 Z"/></g>
<g><path style="opacity:1" fill="#a16f20" d="M 227.5,188.5 C 230.166,188.933 232.832,189.433 235.5,190C 236.288,193.076 236.788,196.242 237,199.5C 238.941,203.554 239.775,203.22 239.5,198.5C 240.479,201.625 240.813,204.958 240.5,208.5C 239.5,208.5 238.5,208.5 237.5,208.5C 235.5,207.167 233.833,205.5 232.5,203.5C 231.559,201.95 230.893,200.284 230.5,198.5C 228.942,195.756 229.609,193.59 232.5,192C 230.569,191.098 228.903,189.931 227.5,188.5 Z"/></g>
<g><path style="opacity:0.047" fill="#665742" d="M 323.5,189.5 C 325.5,189.5 326.5,190.5 326.5,192.5C 325.167,191.833 324.167,190.833 323.5,189.5 Z"/></g>
<g><path style="opacity:1" fill="#3d2b12" d="M 236.5,184.5 C 239.463,186.441 242.629,188.108 246,189.5C 246.902,189.257 247.735,188.923 248.5,188.5C 248.461,189.583 248.127,190.583 247.5,191.5C 248.63,192.622 249.297,193.956 249.5,195.5C 248.167,194.5 246.833,193.5 245.5,192.5C 241.919,189.436 237.919,186.936 233.5,185C 234.448,184.517 235.448,184.351 236.5,184.5 Z"/></g>
<g><path style="opacity:1" fill="#302210" d="M 228.5,197.5 C 227.167,196.833 225.833,196.167 224.5,195.5C 224.923,194.735 225.257,193.902 225.5,193C 224.496,191.202 223.996,189.368 224,187.5C 225.543,189.378 227.376,190.878 229.5,192C 228.572,192.388 227.905,193.055 227.5,194C 227.989,195.138 228.322,196.305 228.5,197.5 Z"/></g>
<g><path style="opacity:1" fill="#343335" d="M 275.5,201.5 C 277.948,202.473 280.615,202.806 283.5,202.5C 283.739,204.467 283.406,206.301 282.5,208C 283.24,209.785 283.907,211.618 284.5,213.5C 283.923,215.55 282.59,216.55 280.5,216.5C 276.033,215.195 273.533,212.195 273,207.5C 270.131,204.296 266.965,201.463 263.5,199C 265.683,196.65 268.016,194.483 270.5,192.5C 272.359,195.429 274.026,198.429 275.5,201.5 Z"/></g>
<g><path style="opacity:0.047" fill="#665742" d="M 326.5,192.5 C 328.5,192.5 329.5,193.5 329.5,195.5C 328.167,194.833 327.167,193.833 326.5,192.5 Z"/></g>
<g><path style="opacity:1" fill="#d9ac64" d="M 245.5,192.5 C 246.833,193.5 248.167,194.5 249.5,195.5C 251.262,196.262 252.262,197.596 252.5,199.5C 252.5,200.5 252.5,201.5 252.5,202.5C 255.421,202.146 257.754,203.146 259.5,205.5C 259.167,205.833 258.833,206.167 258.5,206.5C 256.018,205.103 253.352,204.269 250.5,204C 248.987,199.819 246.654,196.152 243.5,193C 244.094,192.536 244.761,192.369 245.5,192.5 Z"/></g>
<g><path style="opacity:0.996" fill="#888a8e" d="M 264.5,184.5 C 267.932,184.248 268.932,185.581 267.5,188.5C 265.044,191.458 262.378,194.291 259.5,197C 258.207,197.49 256.873,197.657 255.5,197.5C 255.351,196.448 255.517,195.448 256,194.5C 258.669,191 261.502,187.667 264.5,184.5 Z"/></g>
<g><path style="opacity:1" fill="#a37835" d="M 325.5,201.5 C 326.585,203.587 328.251,204.92 330.5,205.5C 332.985,207.652 334.651,210.319 335.5,213.5C 336.283,217.146 336.45,220.812 336,224.5C 335.34,221.322 334.507,218.322 333.5,215.5C 333.657,214.127 333.49,212.793 333,211.5C 326.702,205.191 319.702,199.858 312,195.5C 306.281,197.943 300.781,200.776 295.5,204C 294.418,205.33 293.751,206.83 293.5,208.5C 292.833,208.833 292.167,209.167 291.5,209.5C 291.665,207.173 292.331,205.007 293.5,203C 298.577,199.599 303.911,196.599 309.5,194C 311.167,193.333 312.833,193.333 314.5,194C 318.322,196.33 321.988,198.83 325.5,201.5 Z"/></g>
<g><path style="opacity:1" fill="#3c2a13" d="M 283.5,188.5 C 284.59,191.681 284.59,195.015 283.5,198.5C 282.209,198.737 281.209,198.404 280.5,197.5C 281.376,197.631 282.043,197.298 282.5,196.5C 280.605,194.133 280.105,191.466 281,188.5C 282.702,194.96 283.535,194.96 283.5,188.5 Z"/></g>
<g><path style="opacity:0.047" fill="#665742" d="M 329.5,195.5 C 331.5,195.5 332.5,196.5 332.5,198.5C 331.167,197.833 330.167,196.833 329.5,195.5 Z"/></g>
<g><path style="opacity:0.047" fill="#665742" d="M 332.5,198.5 C 334.5,198.5 335.5,199.5 335.5,201.5C 334.167,200.833 333.167,199.833 332.5,198.5 Z"/></g>
<g><path style="opacity:0.047" fill="#59472c" d="M 224.5,195.5 C 225.833,196.167 227.167,196.833 228.5,197.5C 229.167,197.833 229.833,198.167 230.5,198.5C 230.893,200.284 231.559,201.95 232.5,203.5C 231.167,203.5 230.5,204.167 230.5,205.5C 229.511,201.515 227.511,198.182 224.5,195.5 Z"/></g>
<g><path style="opacity:1" fill="#432f13" d="M 325.5,201.5 C 327.749,202.08 329.415,203.413 330.5,205.5C 328.251,204.92 326.585,203.587 325.5,201.5 Z"/></g>
<g><path style="opacity:0.047" fill="#665742" d="M 335.5,201.5 C 337.5,201.5 338.5,202.5 338.5,204.5C 337.167,203.833 336.167,202.833 335.5,201.5 Z"/></g>
<g><path style="opacity:1" fill="#946d2f" d="M 262.5,203.5 C 266.297,204.959 268.631,207.626 269.5,211.5C 268.833,211.5 268.167,211.5 267.5,211.5C 265.546,206.007 263.879,205.674 262.5,210.5C 262.5,208.167 262.5,205.833 262.5,203.5 Z"/></g>
<g><path style="opacity:0.047" fill="#665742" d="M 338.5,204.5 C 340.5,204.5 341.5,205.5 341.5,207.5C 340.167,206.833 339.167,205.833 338.5,204.5 Z"/></g>
<g><path style="opacity:1" fill="#1e1815" d="M 232.5,203.5 C 233.833,205.5 235.5,207.167 237.5,208.5C 238.209,209.404 239.209,209.737 240.5,209.5C 240.5,210.5 240.5,211.5 240.5,212.5C 238.833,212.5 237.167,212.5 235.5,212.5C 235.167,212.5 234.833,212.5 234.5,212.5C 233.828,211.733 232.995,211.066 232,210.5C 231.802,208.618 231.302,206.952 230.5,205.5C 230.5,204.167 231.167,203.5 232.5,203.5 Z"/></g>
<g><path style="opacity:1" fill="#a26f1f" d="M 242.5,202.5 C 243.302,203.952 243.802,205.618 244,207.5C 247.37,210.535 250.37,213.868 253,217.5C 253.667,220.5 253.667,223.5 253,226.5C 252.668,229.543 251.168,231.543 248.5,232.5C 248.664,229.813 248.497,227.146 248,224.5C 247.617,223.944 247.117,223.611 246.5,223.5C 244.909,221.367 242.909,219.701 240.5,218.5C 239.652,216.907 238.319,215.74 236.5,215C 238.488,214.82 240.488,214.986 242.5,215.5C 242.5,214.167 242.5,212.833 242.5,211.5C 242.5,208.5 242.5,205.5 242.5,202.5 Z"/></g>
<g><path style="opacity:0.047" fill="#665742" d="M 341.5,207.5 C 343.5,207.5 344.5,208.5 344.5,210.5C 343.167,209.833 342.167,208.833 341.5,207.5 Z"/></g>
<g><path style="opacity:1" fill="#37260f" d="M 242.5,202.5 C 242.5,205.5 242.5,208.5 242.5,211.5C 240.34,213.564 238.007,213.898 235.5,212.5C 237.167,212.5 238.833,212.5 240.5,212.5C 240.5,211.5 240.5,210.5 240.5,209.5C 239.209,209.737 238.209,209.404 237.5,208.5C 238.5,208.5 239.5,208.5 240.5,208.5C 240.813,204.958 240.479,201.625 239.5,198.5C 239.351,197.448 239.517,196.448 240,195.5C 241.523,197.569 242.357,199.903 242.5,202.5 Z"/></g>
<g><path style="opacity:1" fill="#251c13" d="M 267.5,211.5 C 265.833,212.833 264.167,212.833 262.5,211.5C 262.5,211.167 262.5,210.833 262.5,210.5C 263.879,205.674 265.546,206.007 267.5,211.5 Z"/></g>
<g><path style="opacity:0.047" fill="#665742" d="M 344.5,211.5 C 344.5,211.167 344.5,210.833 344.5,210.5C 346.5,210.5 347.5,211.5 347.5,213.5C 346.5,212.833 345.5,212.167 344.5,211.5 Z"/></g>
<g><path style="opacity:1" fill="#3d2a0f" d="M 262.5,211.5 C 264.167,212.833 265.833,212.833 267.5,211.5C 268.167,211.5 268.833,211.5 269.5,211.5C 269.167,212.167 268.833,212.833 268.5,213.5C 263.758,214.019 259.092,214.019 254.5,213.5C 256.41,212.58 259.077,211.914 262.5,211.5 Z"/></g>
<g><path style="opacity:0.976" fill="#44321a" d="M 293.5,208.5 C 292.52,211.116 291.02,213.449 289,215.5C 288.762,213.044 289.596,211.044 291.5,209.5C 292.167,209.167 292.833,208.833 293.5,208.5 Z"/></g>
<g><path style="opacity:0.996" fill="#939599" d="M 332.5,204.5 C 336.058,206.052 339.058,208.385 341.5,211.5C 342.687,212.653 343.687,212.653 344.5,211.5C 345.5,212.167 346.5,212.833 347.5,213.5C 348.167,214.833 349.167,215.833 350.5,216.5C 351.167,217.833 352.167,218.833 353.5,219.5C 354.167,220.833 355.167,221.833 356.5,222.5C 357.625,223.652 357.625,224.652 356.5,225.5C 352.707,222.875 349.374,219.709 346.5,216C 345.255,215.209 343.922,214.709 342.5,214.5C 338.833,211.5 335.5,208.167 332.5,204.5 Z"/></g>
<g><path style="opacity:1" fill="#664e2c" d="M 230.5,205.5 C 231.302,206.952 231.802,208.618 232,210.5C 232.995,211.066 233.828,211.733 234.5,212.5C 233.375,213.348 233.375,214.348 234.5,215.5C 233.599,216.29 232.932,217.29 232.5,218.5C 231.833,218.833 231.167,219.167 230.5,219.5C 230.703,217.956 231.37,216.622 232.5,215.5C 229.934,212.428 229.267,209.095 230.5,205.5 Z"/></g>
<g><path style="opacity:1" fill="#825e26" d="M 242.5,211.5 C 242.5,212.833 242.5,214.167 242.5,215.5C 240.488,214.986 238.488,214.82 236.5,215C 238.319,215.74 239.652,216.907 240.5,218.5C 238.216,218.025 236.216,217.025 234.5,215.5C 233.375,214.348 233.375,213.348 234.5,212.5C 234.833,212.5 235.167,212.5 235.5,212.5C 238.007,213.898 240.34,213.564 242.5,211.5 Z"/></g>
<g><path style="opacity:0.047" fill="#665742" d="M 347.5,213.5 C 349.5,213.5 350.5,214.5 350.5,216.5C 349.167,215.833 348.167,214.833 347.5,213.5 Z"/></g>
<g><path style="opacity:0.047" fill="#665742" d="M 350.5,216.5 C 352.5,216.5 353.5,217.5 353.5,219.5C 352.167,218.833 351.167,217.833 350.5,216.5 Z"/></g>
<g><path style="opacity:1" fill="#72511f" d="M 268.5,217.5 C 270.483,217.157 271.817,217.824 272.5,219.5C 271.348,218.375 270.348,218.375 269.5,219.5C 267.895,218.994 267.561,218.327 268.5,217.5 Z"/></g>
<g><path style="opacity:1" fill="#231a13" d="M 322.5,216.5 C 322.291,217.922 321.791,219.255 321,220.5C 318.648,222.03 316.481,223.697 314.5,225.5C 313.5,225.833 312.833,226.5 312.5,227.5C 310.833,227.5 309.167,227.5 307.5,227.5C 308.229,221.858 305.895,219.191 300.5,219.5C 303.143,218.021 305.643,218.354 308,220.5C 308.689,219.643 309.522,218.977 310.5,218.5C 313.089,221.105 315.589,221.105 318,218.5C 318.414,218.957 318.914,219.291 319.5,219.5C 320.288,218.23 321.288,217.23 322.5,216.5 Z"/></g>
<g><path style="opacity:1" fill="#261c11" d="M 335.5,213.5 C 337.25,217.183 337.917,221.183 337.5,225.5C 335.571,225.769 333.905,225.269 332.5,224C 334.645,223.257 334.811,222.424 333,221.5C 331.584,222.573 330.25,222.573 329,221.5C 328.809,223.708 328.309,225.708 327.5,227.5C 327.552,225.097 327.219,222.764 326.5,220.5C 328.124,220.64 329.29,219.973 330,218.5C 330.71,219.973 331.876,220.64 333.5,220.5C 333.5,218.833 333.5,217.167 333.5,215.5C 334.507,218.322 335.34,221.322 336,224.5C 336.45,220.812 336.283,217.146 335.5,213.5 Z"/></g>
<g><path style="opacity:1" fill="#aa7a2d" d="M 254.5,213.5 C 259.092,214.019 263.758,214.019 268.5,213.5C 272.598,215.749 276.598,218.249 280.5,221C 283.695,221.181 286.695,221.681 289.5,222.5C 286.351,222.211 283.351,222.711 280.5,224C 283.852,226.045 283.185,227.545 278.5,228.5C 277.584,228.457 276.917,228.124 276.5,227.5C 277.675,227.719 278.675,227.386 279.5,226.5C 276.802,224.468 274.468,222.135 272.5,219.5C 271.817,217.824 270.483,217.157 268.5,217.5C 266.024,214.199 262.858,213.532 259,215.5C 256.992,215.693 255.492,215.026 254.5,213.5 Z"/></g>
<g><path style="opacity:0.047" fill="#665742" d="M 353.5,219.5 C 355.5,219.5 356.5,220.5 356.5,222.5C 355.167,221.833 354.167,220.833 353.5,219.5 Z"/></g>
<g><path style="opacity:1" fill="#1e1918" d="M 234.5,215.5 C 236.216,217.025 238.216,218.025 240.5,218.5C 242.909,219.701 244.909,221.367 246.5,223.5C 247.344,227.099 247.677,230.766 247.5,234.5C 247.5,234.833 247.5,235.167 247.5,235.5C 246.732,236.263 246.232,237.263 246,238.5C 245.578,234.609 244.078,231.276 241.5,228.5C 238.832,233.468 237.832,238.802 238.5,244.5C 238.167,246.5 237.833,248.5 237.5,250.5C 238.546,252.785 238.546,255.118 237.5,257.5C 236.187,261.076 235.687,264.742 236,268.5C 236.414,268.957 236.914,269.291 237.5,269.5C 238.322,267.861 238.989,266.195 239.5,264.5C 240.268,263.737 240.768,262.737 241,261.5C 241.535,265.038 242.368,268.372 243.5,271.5C 244.5,270.833 245.5,270.167 246.5,269.5C 245.844,271.484 245.178,273.484 244.5,275.5C 244.543,276.416 244.876,277.083 245.5,277.5C 245.833,278.5 246.5,279.167 247.5,279.5C 251.819,284.816 256.819,289.483 262.5,293.5C 262.229,295.38 262.896,296.713 264.5,297.5C 265.391,298.11 266.391,298.443 267.5,298.5C 269.948,299.473 272.615,299.806 275.5,299.5C 275.343,298.127 275.51,296.793 276,295.5C 277.518,294.837 278.685,293.837 279.5,292.5C 280.391,291.89 281.391,291.557 282.5,291.5C 285.505,291.747 288.005,290.747 290,288.5C 290.333,291.5 290.667,294.5 291,297.5C 291.383,298.056 291.883,298.389 292.5,298.5C 292.953,300.565 293.953,302.232 295.5,303.5C 295.491,305.308 295.991,306.975 297,308.5C 300.112,311.774 302.612,315.44 304.5,319.5C 304.715,321.179 304.048,322.179 302.5,322.5C 301.577,321.697 300.577,321.53 299.5,322C 297.667,325.167 295.167,327.667 292,329.5C 287.578,324.908 283.078,320.575 278.5,316.5C 275.651,313.263 272.651,310.263 269.5,307.5C 264.113,301.446 258.446,295.779 252.5,290.5C 238.548,275.881 224.215,261.548 209.5,247.5C 217.819,238.681 226.319,230.014 235,221.5C 235.585,220.002 235.085,219.002 233.5,218.5C 233.167,218.5 232.833,218.5 232.5,218.5C 232.932,217.29 233.599,216.29 234.5,215.5 Z"/></g>
<g><path style="opacity:1" fill="#2a2a2b" d="M 348.5,267.5 C 346.359,269.968 343.692,271.634 340.5,272.5C 338.609,277.059 335.609,280.726 331.5,283.5C 328.903,283.279 328.903,282.779 331.5,282C 330.296,280.647 329.629,278.981 329.5,277C 329.772,271.211 330.272,271.378 331,277.5C 331.667,273.167 331.667,268.833 331,264.5C 330.667,266.167 330.333,267.833 330,269.5C 329.333,266.833 329.333,264.167 330,261.5C 330.669,264.028 331.502,264.028 332.5,261.5C 331.359,260.575 331.359,259.741 332.5,259C 331.833,258.667 331.167,258.333 330.5,258C 331.624,257.161 332.291,255.994 332.5,254.5C 332.527,249.27 332.194,243.936 331.5,238.5C 331.179,235.488 332.512,234.155 335.5,234.5C 335.946,238.877 335.279,243.044 333.5,247C 333.944,248.762 334.444,248.595 335,246.5C 335.831,261.152 336.331,261.152 336.5,246.5C 341.833,246.167 341.833,245.833 336.5,245.5C 336.941,239.407 336.941,233.407 336.5,227.5C 337.172,226.733 338.005,226.066 339,225.5C 339.333,223.167 339.667,220.833 340,218.5C 349.473,227.973 358.973,237.473 368.5,247C 361.295,253.371 354.629,260.204 348.5,267.5 Z"/></g>
<g><path style="opacity:1" fill="#35240e" d="M 298.5,218.5 C 299.167,218.5 299.5,218.833 299.5,219.5C 298.037,222.663 298.37,225.663 300.5,228.5C 299.998,229.521 299.332,229.688 298.5,229C 295.868,225.432 295.868,221.932 298.5,218.5 Z"/></g>
<g><path style="opacity:1" fill="#c58c2f" d="M 326.5,227.5 C 326.5,228.833 326.5,230.167 326.5,231.5C 324.742,231.123 323.075,230.456 321.5,229.5C 321.167,229.833 320.833,230.167 320.5,230.5C 321.77,231.288 322.77,232.288 323.5,233.5C 322.527,235.948 322.194,238.615 322.5,241.5C 320.833,241.5 319.167,241.5 317.5,241.5C 315.876,241.64 314.71,240.973 314,239.5C 306.256,241.049 303.922,238.049 307,230.5C 308.719,229.131 310.552,228.131 312.5,227.5C 312.833,226.5 313.5,225.833 314.5,225.5C 318.273,226.178 321.106,224.844 323,221.5C 324.442,223.391 325.609,225.391 326.5,227.5 Z"/></g>
<g><path style="opacity:1" fill="#996c26" d="M 326.5,220.5 C 327.219,222.764 327.552,225.097 327.5,227.5C 327.167,227.5 326.833,227.5 326.5,227.5C 325.609,225.391 324.442,223.391 323,221.5C 321.106,224.844 318.273,226.178 314.5,225.5C 316.481,223.697 318.648,222.03 321,220.5C 321.791,219.255 322.291,217.922 322.5,216.5C 323.15,216.196 323.817,215.863 324.5,215.5C 325.17,217.291 325.837,218.958 326.5,220.5 Z"/></g>
<g><path style="opacity:1" fill="#4b3413" d="M 269.5,219.5 C 270.348,218.375 271.348,218.375 272.5,219.5C 274.468,222.135 276.802,224.468 279.5,226.5C 278.675,227.386 277.675,227.719 276.5,227.5C 274.628,224.418 272.295,221.751 269.5,219.5 Z"/></g>
<g><path style="opacity:1" fill="#6c6e72" d="M 342.5,214.5 C 343.922,214.709 345.255,215.209 346.5,216C 349.374,219.709 352.707,222.875 356.5,225.5C 363.451,232.786 370.451,240.12 377.5,247.5C 374.767,250.239 371.767,252.573 368.5,254.5C 370.626,252.196 372.626,249.696 374.5,247C 363.626,236.293 352.959,225.46 342.5,214.5 Z"/></g>
<g><path style="opacity:1" fill="#625e5a" d="M 232.5,218.5 C 232.833,218.5 233.167,218.5 233.5,218.5C 227.196,226.138 220.53,233.472 213.5,240.5C 212.036,239.595 210.702,239.595 209.5,240.5C 209.369,239.761 209.536,239.094 210,238.5C 216.612,231.804 223.446,225.47 230.5,219.5C 231.167,219.167 231.833,218.833 232.5,218.5 Z"/></g>
<g><path style="opacity:1" fill="#313439" d="M 237.5,224.5 C 238.043,224.56 238.376,224.893 238.5,225.5C 237.391,227.385 236.557,229.385 236,231.5C 235.428,240.174 234.761,248.841 234,257.5C 233.333,259.5 232.667,261.5 232,263.5C 226.5,258 221,252.5 215.5,247C 223.036,239.632 230.369,232.132 237.5,224.5 Z"/></g>
<g><path style="opacity:1" fill="#282728" d="M 336.5,227.5 C 336.941,233.407 336.941,239.407 336.5,245.5C 341.833,245.833 341.833,246.167 336.5,246.5C 336.331,261.152 335.831,261.152 335,246.5C 334.444,248.595 333.944,248.762 333.5,247C 335.279,243.044 335.946,238.877 335.5,234.5C 332.512,234.155 331.179,235.488 331.5,238.5C 332.194,243.936 332.527,249.27 332.5,254.5C 332.291,255.994 331.624,257.161 330.5,258C 331.167,258.333 331.833,258.667 332.5,259C 331.359,259.741 331.359,260.575 332.5,261.5C 331.502,264.028 330.669,264.028 330,261.5C 329.333,264.167 329.333,266.833 330,269.5C 330.333,267.833 330.667,266.167 331,264.5C 331.667,268.833 331.667,273.167 331,277.5C 330.272,271.378 329.772,271.211 329.5,277C 329.629,278.981 330.296,280.647 331.5,282C 328.903,282.779 328.903,283.279 331.5,283.5C 328.538,286.964 325.371,290.297 322,293.5C 321.275,283.868 320.608,274.202 320,264.5C 317.611,259.446 314.445,254.946 310.5,251C 311.956,249.255 313.289,247.422 314.5,245.5C 317.447,244.679 320.447,244.179 323.5,244C 325.314,241.519 325.98,238.685 325.5,235.5C 327.38,235.771 328.713,235.104 329.5,233.5C 330.451,232.081 330.784,230.415 330.5,228.5C 332.565,228.483 334.565,228.15 336.5,227.5 Z"/></g>
<g><path style="opacity:1" fill="#694a1d" d="M 246.5,223.5 C 247.117,223.611 247.617,223.944 248,224.5C 248.497,227.146 248.664,229.813 248.5,232.5C 248.672,233.492 248.338,234.158 247.5,234.5C 247.677,230.766 247.344,227.099 246.5,223.5 Z"/></g>
<g><path style="opacity:1" fill="#7b5822" d="M 247.5,235.5 C 247.768,237.099 247.434,238.432 246.5,239.5C 244.928,237.056 243.428,234.39 242,231.5C 241.229,236.109 240.062,240.442 238.5,244.5C 237.832,238.802 238.832,233.468 241.5,228.5C 244.078,231.276 245.578,234.609 246,238.5C 246.232,237.263 246.732,236.263 247.5,235.5 Z"/></g>
<g><path style="opacity:1" fill="#7d5a26" d="M 257.5,224.5 C 258.806,225.467 259.473,226.801 259.5,228.5C 258.833,230.5 258.167,232.5 257.5,234.5C 257.271,230.918 257.271,227.584 257.5,224.5 Z"/></g>
<g><path style="opacity:1" fill="#5c4117" d="M 295.5,231.5 C 294.209,231.263 293.209,231.596 292.5,232.5C 291.5,231.833 290.5,231.167 289.5,230.5C 289.5,230.167 289.5,229.833 289.5,229.5C 290.583,229.539 291.583,229.873 292.5,230.5C 294.104,226.71 295.104,227.044 295.5,231.5 Z"/></g>
<g><path style="opacity:1" fill="#4d3614" d="M 326.5,231.5 C 325.71,232.401 324.71,233.068 323.5,233.5C 322.77,232.288 321.77,231.288 320.5,230.5C 320.833,230.167 321.167,229.833 321.5,229.5C 323.075,230.456 324.742,231.123 326.5,231.5 Z"/></g>
<g><path style="opacity:1" fill="#a47121" d="M 257.5,224.5 C 260.562,225.692 263.562,227.192 266.5,229C 267.687,230.019 268.687,231.186 269.5,232.5C 268.547,235.426 267.213,238.093 265.5,240.5C 263.469,242.522 261.135,244.189 258.5,245.5C 253.833,245.5 249.167,245.5 244.5,245.5C 246.448,251.738 248.115,258.072 249.5,264.5C 249.672,265.492 249.338,266.158 248.5,266.5C 248.565,266.062 248.399,265.728 248,265.5C 247.167,266.5 246.333,267.5 245.5,268.5C 244.818,267.757 244.151,267.091 243.5,266.5C 242.423,263.474 242.423,260.474 243.5,257.5C 242.196,254.533 240.196,252.199 237.5,250.5C 237.833,248.5 238.167,246.5 238.5,244.5C 240.062,240.442 241.229,236.109 242,231.5C 243.428,234.39 244.928,237.056 246.5,239.5C 244.825,241.456 245.158,242.789 247.5,243.5C 254.765,244.102 259.098,240.602 260.5,233C 260.395,231.408 260.061,229.908 259.5,228.5C 259.473,226.801 258.806,225.467 257.5,224.5 Z"/></g>
<g><path style="opacity:1" fill="#b07c2b" d="M 298.5,218.5 C 295.868,221.932 295.868,225.432 298.5,229C 299.332,229.688 299.998,229.521 300.5,228.5C 298.37,225.663 298.037,222.663 299.5,219.5C 299.833,219.5 300.167,219.5 300.5,219.5C 305.895,219.191 308.229,221.858 307.5,227.5C 309.167,227.5 310.833,227.5 312.5,227.5C 310.552,228.131 308.719,229.131 307,230.5C 303.922,238.049 306.256,241.049 314,239.5C 314.71,240.973 315.876,241.64 317.5,241.5C 314.637,242.795 311.97,244.462 309.5,246.5C 307.184,244.604 304.85,242.604 302.5,240.5C 301.081,238.073 300.081,235.406 299.5,232.5C 298.914,232.709 298.414,233.043 298,233.5C 297.516,231.822 296.683,231.156 295.5,231.5C 295.104,227.044 294.104,226.71 292.5,230.5C 291.583,229.873 290.583,229.539 289.5,229.5C 289.062,229.565 288.728,229.399 288.5,229C 291.436,226.813 291.769,224.647 289.5,222.5C 290.117,222.611 290.617,222.944 291,223.5C 292.41,220.211 294.91,218.544 298.5,218.5 Z"/></g>
<g><path style="opacity:1" fill="#312311" d="M 302.5,222.5 C 303.376,222.369 304.043,222.702 304.5,223.5C 304.023,224.931 303.357,226.264 302.5,227.5C 300.07,225.963 300.07,224.296 302.5,222.5 Z"/></g>
<g><path style="opacity:1" fill="#7e7a79" d="M 356.5,222.5 C 357.239,222.369 357.906,222.536 358.5,223C 366.406,230.783 374.072,238.783 381.5,247C 381.272,247.399 380.938,247.565 380.5,247.5C 377.5,249.833 374.833,252.5 372.5,255.5C 372.5,256.167 372.167,256.5 371.5,256.5C 370.5,257.167 369.5,257.833 368.5,258.5C 368.103,257.475 367.437,257.308 366.5,258C 361.581,262.749 356.914,267.583 352.5,272.5C 350.204,272.196 349.871,271.196 351.5,269.5C 357.514,264.814 363.181,259.814 368.5,254.5C 371.767,252.573 374.767,250.239 377.5,247.5C 370.451,240.12 363.451,232.786 356.5,225.5C 357.625,224.652 357.625,223.652 356.5,222.5 Z"/></g>
<g><path style="opacity:1" fill="#d7a758" d="M 280.5,233.5 C 280.897,232.475 281.563,232.308 282.5,233C 287.859,236.891 290.692,242.058 291,248.5C 288.474,242.768 284.974,237.768 280.5,233.5 Z"/></g>
<g><path style="opacity:1" fill="#d1a35a" d="M 271.5,240.5 C 265.653,244.591 259.987,248.924 254.5,253.5C 253.167,253.5 252.5,254.167 252.5,255.5C 251.295,254.328 251.295,252.995 252.5,251.5C 254.521,249.479 256.521,247.479 258.5,245.5C 261.135,244.189 263.469,242.522 265.5,240.5C 269.667,238.533 272.167,235.2 273,230.5C 273.691,234.021 273.191,237.355 271.5,240.5 Z"/></g>
<g><path style="opacity:1" fill="#a97627" d="M 289.5,230.5 C 290.5,231.167 291.5,231.833 292.5,232.5C 293.791,233.473 293.791,234.473 292.5,235.5C 292.855,236.522 293.522,237.189 294.5,237.5C 295.657,241.801 297.49,245.801 300,249.5C 303.812,252.969 307.645,256.302 311.5,259.5C 309.053,259.615 307.053,260.615 305.5,262.5C 304.25,262.577 303.417,263.244 303,264.5C 299.654,264.049 296.154,263.382 292.5,262.5C 294.857,262.663 297.19,262.497 299.5,262C 294.363,261.098 289.697,259.098 285.5,256C 283.866,255.506 282.199,255.34 280.5,255.5C 281.29,254.599 282.29,253.932 283.5,253.5C 288.239,254.185 292.906,255.185 297.5,256.5C 295.641,250.09 293.474,243.757 291,237.5C 289.848,235.351 288.348,233.518 286.5,232C 287.737,231.768 288.737,231.268 289.5,230.5 Z"/></g>
<g><path style="opacity:1" fill="#332411" d="M 295.5,231.5 C 296.683,231.156 297.516,231.822 298,233.5C 298.414,233.043 298.914,232.709 299.5,232.5C 300.081,235.406 301.081,238.073 302.5,240.5C 301.504,240.586 300.671,240.252 300,239.5C 299.506,237.866 299.34,236.199 299.5,234.5C 297.833,234.5 296.167,234.5 294.5,234.5C 294.5,235.5 294.5,236.5 294.5,237.5C 293.522,237.189 292.855,236.522 292.5,235.5C 293.791,234.473 293.791,233.473 292.5,232.5C 293.209,231.596 294.209,231.263 295.5,231.5 Z"/></g>
<g><path style="opacity:1" fill="#3d2a10" d="M 259.5,228.5 C 260.061,229.908 260.395,231.408 260.5,233C 259.098,240.602 254.765,244.102 247.5,243.5C 252.429,242.236 255.763,239.236 257.5,234.5C 258.167,232.5 258.833,230.5 259.5,228.5 Z"/></g>
<g><path style="opacity:1" fill="#c78d2f" d="M 258.5,245.5 C 256.521,247.479 254.521,249.479 252.5,251.5C 251.295,252.995 251.295,254.328 252.5,255.5C 251.31,258.906 251.977,259.239 254.5,256.5C 255.167,255.167 256.167,254.167 257.5,253.5C 258.043,253.56 258.376,253.893 258.5,254.5C 256.559,258.048 254.893,261.714 253.5,265.5C 255.299,266.788 256.965,266.788 258.5,265.5C 261.187,265.336 263.854,265.503 266.5,266C 267.33,268.802 268.163,271.635 269,274.5C 269.837,276.007 271.004,276.507 272.5,276C 271.177,275.184 270.511,274.017 270.5,272.5C 270.5,269.833 270.5,267.167 270.5,264.5C 275.329,263.182 279.829,261.848 284,260.5C 289.483,263.462 291.649,267.795 290.5,273.5C 287.15,273.335 283.817,273.502 280.5,274C 279.944,274.383 279.611,274.883 279.5,275.5C 282.362,276.132 285.196,277.132 288,278.5C 288.019,282.482 286.852,286.148 284.5,289.5C 283.833,290.167 283.167,290.833 282.5,291.5C 281.391,291.557 280.391,291.89 279.5,292.5C 277.883,293.038 276.216,293.371 274.5,293.5C 271.309,292.908 268.309,291.741 265.5,290C 259.609,286.224 253.609,282.724 247.5,279.5C 246.5,279.167 245.833,278.5 245.5,277.5C 248.517,272.825 250.35,267.825 251,262.5C 250.722,263.416 250.222,264.082 249.5,264.5C 248.115,258.072 246.448,251.738 244.5,245.5C 249.167,245.5 253.833,245.5 258.5,245.5 Z"/></g>
<g><path style="opacity:1" fill="#3b3d41" d="M 233.5,218.5 C 235.085,219.002 235.585,220.002 235,221.5C 226.319,230.014 217.819,238.681 209.5,247.5C 224.215,261.548 238.548,275.881 252.5,290.5C 251.448,290.649 250.448,290.483 249.5,290C 242.298,282.631 234.965,275.464 227.5,268.5C 221.678,261.204 215.178,254.537 208,248.5C 207.333,247.833 207.333,247.167 208,246.5C 210.04,244.63 211.873,242.63 213.5,240.5C 220.53,233.472 227.196,226.138 233.5,218.5 Z"/></g>
<g><path style="opacity:1" fill="#3a2810" d="M 273.5,242.5 C 269.781,246.022 265.448,248.522 260.5,250C 259.29,251.039 258.29,252.206 257.5,253.5C 256.167,254.167 255.167,255.167 254.5,256.5C 253.375,255.652 253.375,254.652 254.5,253.5C 259.987,248.924 265.653,244.591 271.5,240.5C 273.694,238.779 274.861,236.445 275,233.5C 275.793,236.741 275.293,239.741 273.5,242.5 Z"/></g>
<g><path style="opacity:0.047" fill="#64563f" d="M 380.5,247.5 C 378.833,251.167 376.167,253.833 372.5,255.5C 374.833,252.5 377.5,249.833 380.5,247.5 Z"/></g>
<g><path style="opacity:1" fill="#535558" d="M 213.5,240.5 C 211.873,242.63 210.04,244.63 208,246.5C 207.333,247.167 207.333,247.833 208,248.5C 215.178,254.537 221.678,261.204 227.5,268.5C 226.5,269.833 225.5,269.833 224.5,268.5C 217.5,261.167 210.5,253.833 203.5,246.5C 203.369,245.761 203.536,245.094 204,244.5C 205.651,242.79 207.484,241.456 209.5,240.5C 210.702,239.595 212.036,239.595 213.5,240.5 Z"/></g>
<g><path style="opacity:0.588" fill="#5f4e33" d="M 203.5,246.5 C 210.5,253.833 217.5,261.167 224.5,268.5C 216.922,262.428 209.756,255.761 203,248.5C 202.308,247.563 202.475,246.897 203.5,246.5 Z"/></g>
<g><path style="opacity:1" fill="#312210" d="M 237.5,250.5 C 240.196,252.199 242.196,254.533 243.5,257.5C 242.423,260.474 242.423,263.474 243.5,266.5C 243.5,268.167 243.5,269.833 243.5,271.5C 242.368,268.372 241.535,265.038 241,261.5C 240.768,262.737 240.268,263.737 239.5,264.5C 239.665,261.482 239.498,258.482 239,255.5C 238.722,256.416 238.222,257.082 237.5,257.5C 238.546,255.118 238.546,252.785 237.5,250.5 Z"/></g>
<g><path style="opacity:1" fill="#34230d" d="M 280.5,255.5 C 282.199,255.34 283.866,255.506 285.5,256C 289.697,259.098 294.363,261.098 299.5,262C 297.19,262.497 294.857,262.663 292.5,262.5C 287.884,258.187 282.551,256.853 276.5,258.5C 276.5,258.167 276.5,257.833 276.5,257.5C 277.287,255.896 278.62,255.229 280.5,255.5 Z"/></g>
<g><path style="opacity:1" fill="#ad7f36" d="M 239.5,264.5 C 238.989,266.195 238.322,267.861 237.5,269.5C 236.914,269.291 236.414,268.957 236,268.5C 235.687,264.742 236.187,261.076 237.5,257.5C 238.222,257.082 238.722,256.416 239,255.5C 239.498,258.482 239.665,261.482 239.5,264.5 Z"/></g>
<g><path style="opacity:1" fill="#936a2a" d="M 254.5,253.5 C 253.375,254.652 253.375,255.652 254.5,256.5C 251.977,259.239 251.31,258.906 252.5,255.5C 252.5,254.167 253.167,253.5 254.5,253.5 Z"/></g>
<g><path style="opacity:1" fill="#af7a27" d="M 273.5,242.5 C 272.154,248.025 269.321,252.691 265,256.5C 264.333,257.167 264.333,257.833 265,258.5C 270.497,253.601 276.663,251.934 283.5,253.5C 282.29,253.932 281.29,254.599 280.5,255.5C 278.62,255.229 277.287,255.896 276.5,257.5C 274.804,257.685 273.471,258.519 272.5,260C 274.14,260.348 275.473,259.848 276.5,258.5C 282.551,256.853 287.884,258.187 292.5,262.5C 296.154,263.382 299.654,264.049 303,264.5C 303.417,263.244 304.25,262.577 305.5,262.5C 301.643,269.875 301.643,277.375 305.5,285C 303.427,288.33 303.094,291.83 304.5,295.5C 305.524,294.147 306.857,293.48 308.5,293.5C 308.842,294.338 309.508,294.672 310.5,294.5C 309.737,295.268 308.737,295.768 307.5,296C 309.333,297.788 311.333,297.954 313.5,296.5C 313.833,297 314.167,297.5 314.5,298C 313.556,299.477 312.223,300.477 310.5,301C 308.236,301.236 306.069,301.736 304,302.5C 304.333,305.167 304.667,307.833 305,310.5C 302.833,307.667 300.667,304.833 298.5,302C 297.212,301.761 296.212,302.261 295.5,303.5C 293.953,302.232 292.953,300.565 292.5,298.5C 292.5,293.167 292.5,287.833 292.5,282.5C 293.167,282.167 293.833,281.833 294.5,281.5C 295.315,282.837 296.482,283.837 298,284.5C 301.109,298.818 302.943,298.818 303.5,284.5C 299.62,282.955 296.287,280.621 293.5,277.5C 292.5,276.167 291.5,274.833 290.5,273.5C 291.649,267.795 289.483,263.462 284,260.5C 279.829,261.848 275.329,263.182 270.5,264.5C 270.5,267.167 270.5,269.833 270.5,272.5C 270.046,269.055 268.712,265.888 266.5,263C 263.183,262.023 260.516,262.856 258.5,265.5C 256.965,266.788 255.299,266.788 253.5,265.5C 254.893,261.714 256.559,258.048 258.5,254.5C 258.376,253.893 258.043,253.56 257.5,253.5C 258.29,252.206 259.29,251.039 260.5,250C 265.448,248.522 269.781,246.022 273.5,242.5 Z"/></g>
<g><path style="opacity:1" fill="#67491d" d="M 276.5,257.5 C 276.5,257.833 276.5,258.167 276.5,258.5C 275.473,259.848 274.14,260.348 272.5,260C 273.471,258.519 274.804,257.685 276.5,257.5 Z"/></g>
<g><path style="opacity:1" fill="#c88d2e" d="M 311.5,259.5 C 312.338,259.842 312.672,260.508 312.5,261.5C 313.354,263.035 313.354,264.368 312.5,265.5C 311.399,264.2 310.066,263.7 308.5,264C 309.669,266.007 310.335,268.173 310.5,270.5C 310.5,273.167 310.5,275.833 310.5,278.5C 311.552,278.351 312.552,278.517 313.5,279C 312.744,282.273 311.41,285.273 309.5,288C 312.117,287.74 313.95,286.24 315,283.5C 315.49,284.793 315.657,286.127 315.5,287.5C 315.167,288.167 314.833,288.833 314.5,289.5C 312.754,291.252 310.754,292.585 308.5,293.5C 306.857,293.48 305.524,294.147 304.5,295.5C 303.094,291.83 303.427,288.33 305.5,285C 301.643,277.375 301.643,269.875 305.5,262.5C 307.053,260.615 309.053,259.615 311.5,259.5 Z"/></g>
<g><path style="opacity:1" fill="#402c11" d="M 270.5,272.5 C 270.511,274.017 271.177,275.184 272.5,276C 271.004,276.507 269.837,276.007 269,274.5C 268.163,271.635 267.33,268.802 266.5,266C 263.854,265.503 261.187,265.336 258.5,265.5C 260.516,262.856 263.183,262.023 266.5,263C 268.712,265.888 270.046,269.055 270.5,272.5 Z"/></g>
<g><path style="opacity:1" fill="#929397" d="M 368.5,258.5 C 363.833,263.833 358.833,268.833 353.5,273.5C 353.5,272.833 353.167,272.5 352.5,272.5C 356.914,267.583 361.581,262.749 366.5,258C 367.437,257.308 368.103,257.475 368.5,258.5 Z"/></g>
<g><path style="opacity:1" fill="#503816" d="M 312.5,265.5 C 312.833,266.833 313.167,268.167 313.5,269.5C 312.075,267.969 311.409,268.302 311.5,270.5C 311.167,270.5 310.833,270.5 310.5,270.5C 310.335,268.173 309.669,266.007 308.5,264C 310.066,263.7 311.399,264.2 312.5,265.5 Z"/></g>
<g><path style="opacity:1" fill="#7e5b24" d="M 248.5,266.5 C 248.068,267.71 247.401,268.71 246.5,269.5C 245.5,270.167 244.5,270.833 243.5,271.5C 243.5,269.833 243.5,268.167 243.5,266.5C 244.151,267.091 244.818,267.757 245.5,268.5C 246.333,267.5 247.167,266.5 248,265.5C 248.399,265.728 248.565,266.062 248.5,266.5 Z"/></g>
<g><path style="opacity:1" fill="#c19247" d="M 312.5,261.5 C 313.885,262.574 315.051,263.907 316,265.5C 316.822,273.012 316.655,280.345 315.5,287.5C 315.657,286.127 315.49,284.793 315,283.5C 313.95,286.24 312.117,287.74 309.5,288C 311.41,285.273 312.744,282.273 313.5,279C 312.552,278.517 311.552,278.351 310.5,278.5C 310.5,275.833 310.5,273.167 310.5,270.5C 310.833,270.5 311.167,270.5 311.5,270.5C 311.337,272.857 311.503,275.19 312,277.5C 313.252,274.986 313.752,272.32 313.5,269.5C 313.167,268.167 312.833,266.833 312.5,265.5C 313.354,264.368 313.354,263.035 312.5,261.5 Z"/></g>
<g><path style="opacity:0.047" fill="#65553f" d="M 371.5,256.5 C 366.5,263.5 360.5,269.5 353.5,274.5C 353.5,274.167 353.5,273.833 353.5,273.5C 358.833,268.833 363.833,263.833 368.5,258.5C 369.5,257.833 370.5,257.167 371.5,256.5 Z"/></g>
<g><path style="opacity:1" fill="#2e1e0a" d="M 313.5,269.5 C 313.752,272.32 313.252,274.986 312,277.5C 311.503,275.19 311.337,272.857 311.5,270.5C 311.409,268.302 312.075,267.969 313.5,269.5 Z"/></g>
<g><path style="opacity:1" fill="#c5964d" d="M 245.5,277.5 C 244.876,277.083 244.543,276.416 244.5,275.5C 245.178,273.484 245.844,271.484 246.5,269.5C 247.401,268.71 248.068,267.71 248.5,266.5C 249.338,266.158 249.672,265.492 249.5,264.5C 250.222,264.082 250.722,263.416 251,262.5C 250.35,267.825 248.517,272.825 245.5,277.5 Z"/></g>
<g><path style="opacity:1" fill="#412c10" d="M 290.5,273.5 C 291.5,274.833 292.5,276.167 293.5,277.5C 292.903,277.735 292.57,278.235 292.5,279C 293.056,280.011 293.722,280.844 294.5,281.5C 293.833,281.833 293.167,282.167 292.5,282.5C 292.5,281.833 292.167,281.5 291.5,281.5C 291.822,279.278 291.155,277.444 289.5,276C 286.183,275.502 282.85,275.335 279.5,275.5C 279.611,274.883 279.944,274.383 280.5,274C 283.817,273.502 287.15,273.335 290.5,273.5 Z"/></g>
<g><path style="opacity:1" fill="#aa792b" d="M 279.5,275.5 C 282.85,275.335 286.183,275.502 289.5,276C 291.155,277.444 291.822,279.278 291.5,281.5C 291.543,286.272 289.21,288.939 284.5,289.5C 286.852,286.148 288.019,282.482 288,278.5C 285.196,277.132 282.362,276.132 279.5,275.5 Z"/></g>
<g><path style="opacity:1" fill="#39270f" d="M 344.5,275.5 C 345.5,275.5 346.5,275.5 347.5,275.5C 348.475,277.193 349.808,278.693 351.5,280C 351.272,280.399 350.938,280.565 350.5,280.5C 350.167,280.5 349.833,280.5 349.5,280.5C 347.527,279.194 345.861,277.527 344.5,275.5 Z"/></g>
<g><path style="opacity:1" fill="#726f6e" d="M 224.5,268.5 C 225.5,269.833 226.5,269.833 227.5,268.5C 234.965,275.464 242.298,282.631 249.5,290C 250.448,290.483 251.448,290.649 252.5,290.5C 258.446,295.779 264.113,301.446 269.5,307.5C 268.448,307.649 267.448,307.483 266.5,307C 261.5,302 256.5,297 251.5,292C 249.239,291.793 248.905,292.626 250.5,294.5C 241.167,286.5 232.5,277.833 224.5,268.5 Z"/></g>
<g><path style="opacity:1" fill="#d9aa61" d="M 272.5,286.5 C 270.104,284.445 267.438,282.779 264.5,281.5C 262.194,279.861 260.194,277.861 258.5,275.5C 257.246,272.117 258.246,271.617 261.5,274C 266.733,279.893 273.067,284.226 280.5,287C 277.808,287.43 275.141,287.263 272.5,286.5 Z"/></g>
<g><path style="opacity:1" fill="#9e7432" d="M 344.5,275.5 C 345.861,277.527 347.527,279.194 349.5,280.5C 348.508,280.328 347.842,280.662 347.5,281.5C 345.871,280.375 344.371,279.041 343,277.5C 342.472,276.184 342.972,275.517 344.5,275.5 Z"/></g>
<g><path style="opacity:0.145" fill="#68512d" d="M 353.5,274.5 C 356.283,281.241 358.949,288.074 361.5,295C 360.773,296.399 360.273,297.899 360,299.5C 355.94,303.07 351.773,306.404 347.5,309.5C 349.167,307.5 350.833,305.5 352.5,303.5C 356.517,301.989 358.85,299.156 359.5,295C 357.55,287.969 354.55,281.469 350.5,275.5C 351.609,275.443 352.609,275.11 353.5,274.5 Z"/></g>
<g><path style="opacity:1" fill="#c48b31" d="M 349.5,280.5 C 349.833,280.5 350.167,280.5 350.5,280.5C 351.263,281.268 352.263,281.768 353.5,282C 353.043,282.414 352.709,282.914 352.5,283.5C 354.521,287.507 355.187,291.507 354.5,295.5C 354.167,294.5 353.5,293.833 352.5,293.5C 350.295,289.753 348.629,285.753 347.5,281.5C 347.842,280.662 348.508,280.328 349.5,280.5 Z"/></g>
<g><path style="opacity:1" fill="#ab7e37" d="M 264.5,281.5 C 267.438,282.779 270.104,284.445 272.5,286.5C 273.872,288.089 275.539,289.422 277.5,290.5C 275.418,291.894 273.751,291.561 272.5,289.5C 272.938,289.565 273.272,289.399 273.5,289C 269.725,287.389 266.725,284.889 264.5,281.5 Z"/></g>
<g><path style="opacity:1" fill="#c39244" d="M 347.5,275.5 C 348.5,275.5 349.5,275.5 350.5,275.5C 354.55,281.469 357.55,287.969 359.5,295C 358.85,299.156 356.517,301.989 352.5,303.5C 351.041,303.433 349.708,303.766 348.5,304.5C 347.761,304.631 347.094,304.464 346.5,304C 348.5,302.667 350.5,301.333 352.5,300C 351.437,298.812 350.103,298.312 348.5,298.5C 348.833,297.5 349.5,296.833 350.5,296.5C 351.75,296.577 352.583,297.244 353,298.5C 354.039,297.756 354.539,296.756 354.5,295.5C 355.187,291.507 354.521,287.507 352.5,283.5C 352.709,282.914 353.043,282.414 353.5,282C 352.263,281.768 351.263,281.268 350.5,280.5C 350.938,280.565 351.272,280.399 351.5,280C 349.808,278.693 348.475,277.193 347.5,275.5 Z"/></g>
<g><path style="opacity:1" fill="#a87526" d="M 247.5,279.5 C 253.609,282.724 259.609,286.224 265.5,290C 268.309,291.741 271.309,292.908 274.5,293.5C 270.658,294.539 266.658,294.539 262.5,293.5C 256.819,289.483 251.819,284.816 247.5,279.5 Z"/></g>
<g><path style="opacity:1" fill="#3d290f" d="M 258.5,275.5 C 260.194,277.861 262.194,279.861 264.5,281.5C 266.725,284.889 269.725,287.389 273.5,289C 273.272,289.399 272.938,289.565 272.5,289.5C 266.546,287.392 261.879,283.559 258.5,278C 256.259,276.478 253.926,275.145 251.5,274C 252.167,273.833 252.833,273.667 253.5,273.5C 255.177,274.187 256.844,274.854 258.5,275.5 Z"/></g>
<g><path style="opacity:1" fill="#1e1a18" d="M 326.5,227.5 C 326.833,227.5 327.167,227.5 327.5,227.5C 328.72,229.282 329.386,231.282 329.5,233.5C 328.713,235.104 327.38,235.771 325.5,235.5C 325.98,238.685 325.314,241.519 323.5,244C 320.447,244.179 317.447,244.679 314.5,245.5C 313.289,247.422 311.956,249.255 310.5,251C 314.445,254.946 317.611,259.446 320,264.5C 320.608,274.202 321.275,283.868 322,293.5C 325.371,290.297 328.538,286.964 331.5,283.5C 335.609,280.726 338.609,277.059 340.5,272.5C 343.692,271.634 346.359,269.968 348.5,267.5C 349.397,268.598 350.23,268.598 351,267.5C 351.464,268.094 351.631,268.761 351.5,269.5C 349.871,271.196 350.204,272.196 352.5,272.5C 353.167,272.5 353.5,272.833 353.5,273.5C 353.5,273.833 353.5,274.167 353.5,274.5C 352.609,275.11 351.609,275.443 350.5,275.5C 349.5,275.5 348.5,275.5 347.5,275.5C 346.5,275.5 345.5,275.5 344.5,275.5C 342.972,275.517 342.472,276.184 343,277.5C 344.371,279.041 345.871,280.375 347.5,281.5C 348.629,285.753 350.295,289.753 352.5,293.5C 352.218,294.778 351.551,295.778 350.5,296.5C 349.5,296.833 348.833,297.5 348.5,298.5C 346.973,298.427 345.973,299.094 345.5,300.5C 343.326,300.75 341.659,301.75 340.5,303.5C 340.167,303.5 339.833,303.5 339.5,303.5C 337.804,303.685 336.471,304.519 335.5,306C 330.044,306.945 324.711,307.778 319.5,308.5C 319.66,310.199 319.494,311.866 319,313.5C 318.617,312.944 318.117,312.611 317.5,312.5C 317.5,311.833 317.5,311.167 317.5,310.5C 318.532,305.341 318.532,300.341 317.5,295.5C 317.5,294.5 317.5,293.5 317.5,292.5C 316.9,291.1 315.9,290.1 314.5,289.5C 314.833,288.833 315.167,288.167 315.5,287.5C 316.655,280.345 316.822,273.012 316,265.5C 315.051,263.907 313.885,262.574 312.5,261.5C 312.672,260.508 312.338,259.842 311.5,259.5C 307.645,256.302 303.812,252.969 300,249.5C 297.49,245.801 295.657,241.801 294.5,237.5C 294.5,236.5 294.5,235.5 294.5,234.5C 296.167,234.5 297.833,234.5 299.5,234.5C 299.34,236.199 299.506,237.866 300,239.5C 300.671,240.252 301.504,240.586 302.5,240.5C 304.85,242.604 307.184,244.604 309.5,246.5C 311.97,244.462 314.637,242.795 317.5,241.5C 319.167,241.5 320.833,241.5 322.5,241.5C 322.194,238.615 322.527,235.948 323.5,233.5C 324.71,233.068 325.71,232.401 326.5,231.5C 326.5,230.167 326.5,228.833 326.5,227.5 Z"/></g>
<g><path style="opacity:1" fill="#322311" d="M 291.5,281.5 C 292.167,281.5 292.5,281.833 292.5,282.5C 292.5,287.833 292.5,293.167 292.5,298.5C 291.883,298.389 291.383,298.056 291,297.5C 290.667,294.5 290.333,291.5 290,288.5C 288.005,290.747 285.505,291.747 282.5,291.5C 283.167,290.833 283.833,290.167 284.5,289.5C 289.21,288.939 291.543,286.272 291.5,281.5 Z"/></g>
<g><path style="opacity:1" fill="#281d11" d="M 293.5,277.5 C 296.287,280.621 299.62,282.955 303.5,284.5C 302.943,298.818 301.109,298.818 298,284.5C 296.482,283.837 295.315,282.837 294.5,281.5C 293.722,280.844 293.056,280.011 292.5,279C 292.57,278.235 292.903,277.735 293.5,277.5 Z"/></g>
<g><path style="opacity:1" fill="#36250e" d="M 314.5,289.5 C 315.9,290.1 316.9,291.1 317.5,292.5C 316.883,292.389 316.383,292.056 316,291.5C 314.512,293.16 312.679,294.16 310.5,294.5C 309.508,294.672 308.842,294.338 308.5,293.5C 310.754,292.585 312.754,291.252 314.5,289.5 Z"/></g>
<g><path style="opacity:1" fill="#3c2a12" d="M 279.5,292.5 C 278.685,293.837 277.518,294.837 276,295.5C 275.51,296.793 275.343,298.127 275.5,299.5C 272.615,299.806 269.948,299.473 267.5,298.5C 269.857,298.663 272.19,298.497 274.5,298C 271.628,297.685 268.795,297.185 266,296.5C 265.235,296.57 264.735,296.903 264.5,297.5C 262.896,296.713 262.229,295.38 262.5,293.5C 266.658,294.539 270.658,294.539 274.5,293.5C 276.216,293.371 277.883,293.038 279.5,292.5 Z"/></g>
<g><path style="opacity:1" fill="#9c7539" d="M 264.5,297.5 C 264.735,296.903 265.235,296.57 266,296.5C 268.795,297.185 271.628,297.685 274.5,298C 272.19,298.497 269.857,298.663 267.5,298.5C 266.391,298.443 265.391,298.11 264.5,297.5 Z"/></g>
<g><path style="opacity:1" fill="#2b2a2b" d="M 285.5,293.5 C 286.5,293.5 287.5,293.5 288.5,293.5C 288.782,298.796 289.782,303.963 291.5,309C 290.491,312.972 290.157,317.139 290.5,321.5C 284.833,316.5 279.5,311.167 274.5,305.5C 276.253,302.995 277.753,300.329 279,297.5C 281.013,295.752 283.18,294.418 285.5,293.5 Z"/></g>
<g><path style="opacity:0.996" fill="#9b9ea2" d="M 337.5,283.5 C 340.001,283.826 341.168,285.159 341,287.5C 335.833,292.667 330.667,297.833 325.5,303C 324.207,303.49 322.873,303.657 321.5,303.5C 321.343,302.127 321.51,300.793 322,299.5C 327.706,294.629 332.872,289.295 337.5,283.5 Z"/></g>
<g><path style="opacity:1" fill="#583f18" d="M 352.5,293.5 C 353.5,293.833 354.167,294.5 354.5,295.5C 354.539,296.756 354.039,297.756 353,298.5C 352.583,297.244 351.75,296.577 350.5,296.5C 351.551,295.778 352.218,294.778 352.5,293.5 Z"/></g>
<g><path style="opacity:1" fill="#c58b2d" d="M 317.5,292.5 C 317.5,293.5 317.5,294.5 317.5,295.5C 317.5,295.833 317.5,296.167 317.5,296.5C 316.883,296.389 316.383,296.056 316,295.5C 315.004,300.656 313.504,305.656 311.5,310.5C 313.752,319.851 314.919,319.517 315,309.5C 315.377,310.942 316.21,311.942 317.5,312.5C 318.117,312.611 318.617,312.944 319,313.5C 319.494,311.866 319.66,310.199 319.5,308.5C 324.511,308.666 329.511,308.499 334.5,308C 337,307.329 338.667,305.829 339.5,303.5C 339.833,303.5 340.167,303.5 340.5,303.5C 342.848,303.408 344.514,302.408 345.5,300.5C 347.027,300.573 348.027,299.906 348.5,298.5C 350.103,298.312 351.437,298.812 352.5,300C 350.5,301.333 348.5,302.667 346.5,304C 347.094,304.464 347.761,304.631 348.5,304.5C 338.596,308.455 329.596,313.955 321.5,321C 319.323,322.202 316.989,322.702 314.5,322.5C 311.689,321.525 308.689,320.858 305.5,320.5C 305.5,319.833 305.167,319.5 304.5,319.5C 302.612,315.44 300.112,311.774 297,308.5C 295.991,306.975 295.491,305.308 295.5,303.5C 296.212,302.261 297.212,301.761 298.5,302C 300.667,304.833 302.833,307.667 305,310.5C 304.667,307.833 304.333,305.167 304,302.5C 306.069,301.736 308.236,301.236 310.5,301C 312.223,300.477 313.556,299.477 314.5,298C 314.167,297.5 313.833,297 313.5,296.5C 311.333,297.954 309.333,297.788 307.5,296C 308.737,295.768 309.737,295.268 310.5,294.5C 312.679,294.16 314.512,293.16 316,291.5C 316.383,292.056 316.883,292.389 317.5,292.5 Z"/></g>
<g><path style="opacity:1" fill="#ce9c4c" d="M 317.5,296.5 C 316.501,301.328 316.501,305.995 317.5,310.5C 317.5,311.167 317.5,311.833 317.5,312.5C 316.21,311.942 315.377,310.942 315,309.5C 314.919,319.517 313.752,319.851 311.5,310.5C 313.504,305.656 315.004,300.656 316,295.5C 316.383,296.056 316.883,296.389 317.5,296.5 Z"/></g>
<g><path style="opacity:1" fill="#7c5922" d="M 348.5,298.5 C 348.027,299.906 347.027,300.573 345.5,300.5C 345.973,299.094 346.973,298.427 348.5,298.5 Z"/></g>
<g><path style="opacity:1" fill="#7f5a22" d="M 345.5,300.5 C 344.514,302.408 342.848,303.408 340.5,303.5C 341.659,301.75 343.326,300.75 345.5,300.5 Z"/></g>
<g><path style="opacity:1" fill="#a47121" d="M 352.5,303.5 C 350.833,305.5 349.167,307.5 347.5,309.5C 346.115,310.614 344.615,311.614 343,312.5C 342.295,310.014 341.462,310.014 340.5,312.5C 335.295,316.603 329.628,319.937 323.5,322.5C 320.344,323.551 317.344,323.551 314.5,322.5C 316.989,322.702 319.323,322.202 321.5,321C 329.596,313.955 338.596,308.455 348.5,304.5C 349.708,303.766 351.041,303.433 352.5,303.5 Z"/></g>
<g><path style="opacity:1" fill="#8d6425" d="M 339.5,303.5 C 338.667,305.829 337,307.329 334.5,308C 329.511,308.499 324.511,308.666 319.5,308.5C 324.711,307.778 330.044,306.945 335.5,306C 336.471,304.519 337.804,303.685 339.5,303.5 Z"/></g>
<g><path style="opacity:1" fill="#402c11" d="M 317.5,295.5 C 318.532,300.341 318.532,305.341 317.5,310.5C 316.501,305.995 316.501,301.328 317.5,296.5C 317.5,296.167 317.5,295.833 317.5,295.5 Z"/></g>
<g><path style="opacity:1" fill="#949393" d="M 269.5,307.5 C 272.651,310.263 275.651,313.263 278.5,316.5C 276.517,316.157 275.183,316.824 274.5,318.5C 265.984,310.93 257.984,302.93 250.5,294.5C 248.905,292.626 249.239,291.793 251.5,292C 256.5,297 261.5,302 266.5,307C 267.448,307.483 268.448,307.649 269.5,307.5 Z"/></g>
<g><path style="opacity:1" fill="#36250e" d="M 340.5,312.5 C 339.026,315.249 337.026,317.582 334.5,319.5C 329.759,322.202 324.759,324.369 319.5,326C 317.735,326.64 316.068,326.473 314.5,325.5C 317.647,324.954 320.647,323.954 323.5,322.5C 329.628,319.937 335.295,316.603 340.5,312.5 Z"/></g>
<g><path style="opacity:0.996" fill="#b0b3b5" d="M 278.5,316.5 C 283.078,320.575 287.578,324.908 292,329.5C 295.167,327.667 297.667,325.167 299.5,322C 300.577,321.53 301.577,321.697 302.5,322.5C 302.5,323.5 302.5,324.5 302.5,325.5C 299.5,327.833 296.833,330.5 294.5,333.5C 294.154,335.363 293.154,336.196 291.5,336C 285.63,330.298 279.964,324.465 274.5,318.5C 275.183,316.824 276.517,316.157 278.5,316.5 Z"/></g>
<g><path style="opacity:1" fill="#a17229" d="M 334.5,319.5 C 334.938,319.435 335.272,319.601 335.5,320C 327.783,327.042 318.783,329.542 308.5,327.5C 307.326,326.486 306.66,325.153 306.5,323.5C 306.443,322.391 306.11,321.391 305.5,320.5C 308.689,320.858 311.689,321.525 314.5,322.5C 310.94,322.717 310.94,323.717 314.5,325.5C 316.068,326.473 317.735,326.64 319.5,326C 324.759,324.369 329.759,322.202 334.5,319.5 Z"/></g>
<g><path style="opacity:0.047" fill="#624e30" d="M 304.5,319.5 C 305.167,319.5 305.5,319.833 305.5,320.5C 306.11,321.391 306.443,322.391 306.5,323.5C 304.801,323.527 303.467,324.194 302.5,325.5C 302.5,324.5 302.5,323.5 302.5,322.5C 304.048,322.179 304.715,321.179 304.5,319.5 Z"/></g>
<g><path style="opacity:1" fill="#7e5a24" d="M 314.5,322.5 C 317.344,323.551 320.344,323.551 323.5,322.5C 320.647,323.954 317.647,324.954 314.5,325.5C 310.94,323.717 310.94,322.717 314.5,322.5 Z"/></g>
<g><path style="opacity:0.678" fill="#755a30" d="M 347.5,309.5 C 342.105,315.725 336.105,321.559 329.5,327C 323.536,327.868 317.703,329.035 312,330.5C 309.725,330.722 308.559,329.722 308.5,327.5C 318.783,329.542 327.783,327.042 335.5,320C 335.272,319.601 334.938,319.435 334.5,319.5C 337.026,317.582 339.026,315.249 340.5,312.5C 341.462,310.014 342.295,310.014 343,312.5C 344.615,311.614 346.115,310.614 347.5,309.5 Z"/></g>
<g><path style="opacity:0.047" fill="#75654e" d="M 302.5,325.5 C 300.833,329.167 298.167,331.833 294.5,333.5C 296.833,330.5 299.5,327.833 302.5,325.5 Z"/></g>
<g><path style="opacity:0.004" fill="#ecebe9" d="M 166.5,386.5 C 167.251,385.427 168.251,385.26 169.5,386C 168.552,386.483 167.552,386.649 166.5,386.5 Z"/></g>
<g><path style="opacity:0.041" fill="#f3f2f2" d="M 420.5,386.5 C 424.311,385.355 428.311,385.188 432.5,386C 428.432,387.342 424.432,387.508 420.5,386.5 Z"/></g>
</svg>
